<?xml version="1.0" encoding="UTF-8"?>
<svg version="1.1" xmlns="http://www.w3.org/2000/svg" width="47" height="29">
<path d="M0 0 C5.57710066 0 8.13112025 0.09994937 13 2 C13 2.66 13 3.32 13 4 C14.19625 3.67 15.3925 3.34 16.625 3 C21.51546845 1.78812645 25.63279839 1.78784803 30.625 2.5625 C33.80217296 2.97435575 35.0459943 2.80563792 38 2 C40.69071664 1.85698947 43.29999744 1.91147533 46 2 C47.5220959 3.5220959 47.12959521 4.88210082 47.1328125 7 C47.13474609 8.2065625 47.13474609 8.2065625 47.13671875 9.4375 C47.13285156 10.283125 47.12898438 11.12875 47.125 12 C47.13080078 13.2684375 47.13080078 13.2684375 47.13671875 14.5625 C47.13542969 15.366875 47.13414063 16.17125 47.1328125 17 C47.13168457 17.7425 47.13055664 18.485 47.12939453 19.25 C47 21 47 21 46 22 C44.1128125 21.9071875 44.1128125 21.9071875 42.1875 21.8125 C38.69853752 21.73498321 38.69853752 21.73498321 35.875 23.8125 C35.25625 24.534375 34.6375 25.25625 34 26 C30.23417069 28.39643683 26.72748875 29.75344077 22.1953125 29.6328125 C18.27718633 28.50338823 15.61936484 25.497756 12.609375 22.84765625 C8.45450425 19.90565945 5.00756743 20 0 20 C0 13.4 0 6.8 0 0 Z M3 3 C3 7.62 3 12.24 3 17 C4.32 16.67 5.64 16.34 7 16 C8.29243536 11.8803623 9.26252625 8.33168317 9 4 C6.03 3.505 6.03 3.505 3 3 Z M19.75 6.875 C17.78809758 8.7985035 17.78809758 8.7985035 18 11 C19.11375 10.67 20.2275 10.34 21.375 10 C24.70067988 9.52916002 25.8498785 9.90665249 28.7578125 11.71484375 C31.25215706 13.73661306 33.65669384 15.8055514 36 18 C37.24612234 16.07257817 37.24612234 16.07257817 36.46875 14.16015625 C34.72288372 10.37979256 33.41183625 7.74515109 29.5 6 C24.28304099 4.44557435 24.28304099 4.44557435 19.75 6.875 Z M38 5 C37.34 5.66 36.68 6.32 36 7 C37.65 10.96 39.3 14.92 41 19 C41.99 19 42.98 19 44 19 C44 14.38 44 9.76 44 5 C42.02 5 40.04 5 38 5 Z M12 7 C10.80130217 10.02071854 9.98449299 12.73318987 10 16 C11.8507873 18.9441919 14.1248595 21.05615501 17 23 C17.66 23 18.32 23 19 23 C19 22.34 19 21.68 19 21 C20.32 21.33 21.64 21.66 23 22 C23 21.01 23 20.02 23 19 C23.99 19 24.98 19 26 19 C26 18.01 26 17.02 26 16 C26.66 15.67 27.32 15.34 28 15 C26.83323505 13.37257599 26.83323505 13.37257599 25 12 C22.47342233 11.85365929 22.47342233 11.85365929 19.8125 12.3125 C18.91144531 12.43238281 18.01039062 12.55226563 17.08203125 12.67578125 C16.39496094 12.78277344 15.70789063 12.88976562 15 13 C15.33 11.02 15.66 9.04 16 7 C14.68 7 13.36 7 12 7 Z M29 16 C30.36983503 19.16115776 30.9890638 19.9927092 34 22 C32.63016497 18.83884224 32.0109362 18.0072908 29 16 Z " fill="#0080BE" transform="translate(0,0)"/>
</svg>
