<?xml version="1.0" encoding="UTF-8"?>
<!DOCTYPE svg PUBLIC "-//W3C//DTD SVG 1.1//EN" "http://www.w3.org/Graphics/SVG/1.1/DTD/svg11.dtd">
<!-- Creator: CorelDRAW X7 -->
<svg xmlns="http://www.w3.org/2000/svg" xml:space="preserve" width="7.60037in" height="8.51386in" version="1.1" style="shape-rendering:geometricPrecision; text-rendering:geometricPrecision; image-rendering:optimizeQuality; fill-rule:evenodd; clip-rule:evenodd"
viewBox="0 0 7600 8514"
 xmlns:xlink="http://www.w3.org/1999/xlink">
 <defs>
  <style type="text/css">
   <![CDATA[
    .str0 {stroke:#0C8CBE;stroke-width:13.8898}
    .fil0 {fill:#0C8CBE}
   ]]>
  </style>
 </defs>
 <g id="Layer_x0020_1">
  <metadata id="CorelCorpID_0Corel-Layer"/>
  <g id="_2936493226288">
   <g>
    <path class="fil0 str0" d="M7444 1464c83,0 149,-67 149,-149l0 -578c0,-82 -66,-149 -149,-149l-2746 0 0 -432c0,-82 -67,-149 -149,-149l-1497 0c-83,0 -150,67 -150,149l0 432 -2746 0c-82,0 -149,67 -149,149l0 578c0,82 67,149 149,149l319 0 0 3933 -319 0c-82,0 -149,67 -149,150l0 756c0,83 67,150 149,150l2078 0 -1488 1810c-36,44 -44,106 -19,158 24,53 77,86 135,86l1250 0c45,0 87,-20 115,-55l1573 -1914 1573 1914c28,35 71,55 115,55l1251 0c57,0 110,-33 135,-86 24,-52 17,-114 -20,-158l-1488 -1810 2078 0c83,0 149,-67 149,-150l0 -756c0,-83 -66,-150 -149,-150l-319 0 0 -3933 319 0zm-4243 -1158l1198 0 0 282 -1198 0 0 -282zm-1160 7902l-863 0 1443 -1755 863 0 -1443 1755zm4382 0l-864 0 -1443 -1755 864 0 1443 1755zm872 -2512l0 458 -6989 0 0 -458 6989 0zm-994 -837l-1135 0c-82,0 -149,67 -149,150l0 388 -4243 0 0 -3933 6052 0 0 3933 0 0 -375 0 0 -388c0,-83 -67,-150 -150,-150zm-149 299l0 239 -836 0 0 -239 836 0zm-5846 -3993l0 -278 6989 0 0 278 -6989 0z"/>
   </g>
  </g>
  <g id="_2936493225072">
   <g>
    <path class="fil0 str0" d="M3178 2682l-762 -762c-28,-28 -66,-44 -105,-44l-880 0c-83,0 -150,67 -150,150l0 1642c0,82 67,149 150,149l1642 0c82,0 149,-67 149,-149l0 -881c0,-39 -16,-77 -44,-105zm-718 -296l252 252 -252 0 0 -252zm463 1132l-1343 0 0 -1343 581 0 0 612c0,83 67,150 150,150l612 0 0 581z"/>
   </g>
  </g>
  <g id="_2936493225264">
   <g>
    <path class="fil0 str0" d="M4823 1876l-941 0c-82,0 -149,67 -149,150l0 940c0,83 67,150 149,150l941 0c82,0 149,-67 149,-150l0 -940c0,-83 -67,-150 -149,-150zm-149 941l-642 0 0 -642 0 0 642 0 0 642z"/>
   </g>
  </g>
  <g id="_2936493227888">
   <g>
    <path class="fil0 str0" d="M6316 2186l-941 0c-82,0 -149,67 -149,150l0 940c0,83 67,150 149,150l941 0c83,0 150,-67 150,-150l0 -940c0,-83 -67,-150 -150,-150zm-149 941l-642 0 0 -642 642 0 0 642z"/>
   </g>
  </g>
  <g id="_2936493229520">
   <g>
    <path class="fil0 str0" d="M6122 3754l-2389 0c-83,0 -150,67 -150,150 0,82 67,149 150,149l2389 0c83,0 149,-67 149,-149 0,-83 -66,-150 -149,-150z"/>
   </g>
  </g>
  <g id="_2936493234160">
   <g>
    <path class="fil0 str0" d="M6122 4307l-2389 0c-83,0 -150,67 -150,149 0,83 67,150 150,150l2389 0c83,0 149,-67 149,-150 0,-82 -66,-149 -149,-149z"/>
   </g>
  </g>
  <g id="_2936493232848">
   <g>
    <path class="fil0 str0" d="M3073 4307l-1642 0c-83,0 -150,67 -150,149 0,83 67,150 150,150l1642 0c82,0 149,-67 149,-150 0,-82 -67,-149 -149,-149z"/>
   </g>
  </g>
  <g id="_2936493234960">
  </g>
  <g id="_2936493236304">
  </g>
  <g id="_2936493236112">
  </g>
  <g id="_2936493235216">
  </g>
  <g id="_2936493236016">
  </g>
  <g id="_2936493234672">
  </g>
  <g id="_2936493237936">
  </g>
  <g id="_2936493237136">
  </g>
  <g id="_2936493237040">
  </g>
  <g id="_2936493237392">
  </g>
  <g id="_2936493237488">
  </g>
  <g id="_2936493238480">
  </g>
  <g id="_2936493238192">
  </g>
  <g id="_2936493240592">
  </g>
  <g id="_2936493239440">
  </g>
 </g>
</svg>
