<?xml version="1.0" encoding="UTF-8"?>
<!DOCTYPE svg PUBLIC "-//W3C//DTD SVG 1.1//EN" "http://www.w3.org/Graphics/SVG/1.1/DTD/svg11.dtd">
<!-- Creator: CorelDRAW X7 -->
<svg xmlns="http://www.w3.org/2000/svg" xml:space="preserve" width="8.33in" height="5.55349in" version="1.1" style="shape-rendering:geometricPrecision; text-rendering:geometricPrecision; image-rendering:optimizeQuality; fill-rule:evenodd; clip-rule:evenodd"
viewBox="0 0 8330 5553"
 xmlns:xlink="http://www.w3.org/1999/xlink">
 <defs>
  <style type="text/css">
   <![CDATA[
    .fil0 {fill:#0C8CBE}
   ]]>
  </style>
 </defs>
 <g id="Layer_x0020_1">
  <metadata id="CorelCorpID_0Corel-Layer"/>
  <g id="_2936510629952">
   <path class="fil0" d="M8330 694l-347 0 0 4165 -347 0 0 -4859c0,0 -2429,0 -3470,781 -1059,-779 -3471,-781 -3471,-781l0 4859 -348 0 0 -4165 -347 0 0 4512 3124 0c117,24 331,51 528,190 241,169 470,158 515,157 45,1 273,12 515,-157 195,-138 408,-166 525,-190l3123 0 0 -4488 0 -24zm-3818 695c1041,-695 2430,-695 2430,-695l0 3471c0,0 -1717,188 -2401,546 0,-263 -29,-3257 -29,-3322zm-694 0c0,66 7,3059 7,3323 -684,-358 -2436,-546 -2436,-546l0 -3472c-1,0 1388,0 2429,695z"/>
  </g>
 </g>
</svg>
