<?xml version="1.0" encoding="UTF-8"?>
<!DOCTYPE svg PUBLIC "-//W3C//DTD SVG 1.1//EN" "http://www.w3.org/Graphics/SVG/1.1/DTD/svg11.dtd">
<!-- Creator: CorelDRAW X7 -->
<svg xmlns="http://www.w3.org/2000/svg" xml:space="preserve" width="2.67181in" height="1.44317in" version="1.1" style="shape-rendering:geometricPrecision; text-rendering:geometricPrecision; image-rendering:optimizeQuality; fill-rule:evenodd; clip-rule:evenodd"
viewBox="0 0 2672 1443"
 xmlns:xlink="http://www.w3.org/1999/xlink">
 <defs>
  <style type="text/css">
   <![CDATA[
    .str0 {stroke:#0089BD;stroke-width:3}
    .fil0 {fill:#0089BD}
   ]]>
  </style>
 </defs>
 <g id="Layer_x0020_1">
  <metadata id="CorelCorpID_0Corel-Layer"/>
  <g id="_2936494218256">
   <g>
    <path class="fil0 str0" d="M446 1442l1152 0c245,0 444,-200 444,-445l0 -97 494 494c15,15 35,23 56,23 10,0 20,-2 30,-6 29,-12 48,-41 48,-73l0 -1258c0,-32 -19,-60 -48,-73 -29,-12 -63,-5 -86,17l-494 495c-4,-242 -202,-438 -444,-438l-1152 0c-245,0 -444,200 -444,445l0 471c0,245 199,445 444,445zm2067 -1172l0 879 -439 -440 439 -439zm-2355 256c0,-159 130,-288 288,-288l1152 0c158,0 287,129 287,288l0 178 0 11 0 282c0,159 -129,288 -287,288l-1152 0c-158,0 -288,-129 -288,-288l0 -471z"/>
   </g>
  </g>
 </g>
</svg>
